Coordinates
version=1
nRows=8
nColumns=63
inDegrees=yes

Units are S.I. units (second, meters, Newtons, ...)
If the header above contains a line with 'inDegrees', this indicates whether rotational values are in degrees (yes) or radians (no).

endheader
time	pelvis_tilt	pelvis_list	pelvis_rotation	pelvis_tx	pelvis_ty	pelvis_tz	hip_flexion_r	hip_adduction_r	hip_rotation_r	knee_angle_r	knee_angle_r_beta	ankle_angle_r	subtalar_angle_r	mtp_angle_r	hip_flexion_l	hip_adduction_l	hip_rotation_l	knee_angle_l	knee_angle_l_beta	ankle_angle_l	subtalar_angle_l	mtp_angle_l	L5_S1_Flex_Ext	L5_S1_Lat_Bending	L5_S1_axial_rotation	L4_L5_Flex_Ext	L4_L5_Lat_Bending	L4_L5_axial_rotation	L3_L4_Flex_Ext	L3_L4_Lat_Bending	L3_L4_axial_rotation	L2_L3_Flex_Ext	L2_L3_Lat_Bending	L2_L3_axial_rotation	L1_L2_Flex_Ext	L1_L2_Lat_Bending	L1_L2_axial_rotation	L1_T12_Flex_Ext	L1_T12_Lat_Bending	L1_T12_axial_rotation	Abs_r3	Abs_r2	Abs_r1	Abs_t1	Abs_t2	neck_flexion	neck_bending	neck_rotation	arm_flex_r	arm_add_r	arm_rot_r	elbow_flex_r	pro_sup_r	wrist_flex_r	wrist_dev_r	arm_flex_l	arm_add_l	arm_rot_l	elbow_flex_l	pro_sup_l	wrist_flex_l	wrist_dev_l
3.898305	0.199896	-1.733889	91.923668	0.189174	0.675858	0.925450	4.203021	-1.906276	-5.814438	6.367645	0.111136	17.485679	12.279248	0.000000	5.551793	-0.507613	0.066975	7.412647	0.129375	20.899435	-2.612241	0.000000	0.066976	0.229902	-0.191237	0.124382	0.305770	-0.203190	0.110036	0.558984	-0.203190	0.076547	0.558984	-0.167333	0.062194	0.468816	-0.155380	0.038270	0.356118	-0.143428	0.478406	2.600699	-1.063606	0.000000	0.000000	26.686722	2.928521	4.191439	-3.430165	-18.013723	46.677706	22.489087	67.728865	-4.899226	-13.831836	-8.785450	-16.975088	34.479030	32.093423	85.474238	-11.679294	-15.156897
3.915254	0.153022	-1.673680	91.937924	0.189001	0.675867	0.925410	4.120625	-1.968606	-5.747343	6.354436	0.110906	17.587587	12.288880	0.000000	5.374292	-0.449431	-0.029531	7.203777	0.125730	20.852395	-2.409133	0.000000	0.062409	0.226299	-0.191383	0.115899	0.300978	-0.203344	0.102531	0.550224	-0.203344	0.071327	0.550224	-0.167460	0.057953	0.461470	-0.155499	0.035660	0.350538	-0.143537	0.445779	2.559944	-1.064415	0.000000	0.000000	26.633268	2.903724	4.154258	-3.417825	-18.015893	46.746396	22.445375	67.673158	-4.880875	-13.786859	-8.661981	-16.914265	34.725225	31.907837	85.382641	-11.903244	-15.257291
3.932203	0.080962	-1.636939	91.908849	0.188919	0.675854	0.925385	4.077304	-2.060405	-5.721038	6.375204	0.111268	17.662490	12.365808	0.000000	5.236372	-0.378008	-0.249088	7.034579	0.122777	20.824802	-2.106817	0.000000	0.059239	0.217757	-0.185898	0.110014	0.289617	-0.197517	0.097325	0.529455	-0.197517	0.067705	0.529455	-0.162661	0.055010	0.444051	-0.151042	0.033849	0.337306	-0.139424	0.423142	2.463314	-1.033911	0.000000	0.000000	26.605568	2.921627	4.055638	-3.406177	-17.998595	46.764833	22.425559	67.680932	-4.857099	-13.769269	-8.588310	-16.894734	34.860895	31.803098	85.342182	-12.042421	-15.338273
3.949153	0.004105	-1.614456	91.857673	0.188861	0.675849	0.925373	4.054012	-2.160075	-5.702682	6.414055	0.111946	17.691344	12.438178	0.000000	5.127517	-0.310587	-0.548208	6.897991	0.120393	20.822631	-1.719280	0.000000	0.055648	0.208191	-0.179636	0.103344	0.276894	-0.190863	0.091424	0.506195	-0.190863	0.063600	0.506195	-0.157182	0.051675	0.424542	-0.145954	0.031797	0.322487	-0.134727	0.397489	2.355094	-0.999083	0.000000	0.000000	26.604960	2.973900	3.989178	-3.397933	-17.989714	46.717587	22.454610	67.789190	-4.842014	-13.786466	-8.552562	-16.888553	34.881811	31.754241	85.340849	-12.073711	-15.380498
3.966102	-0.076389	-1.624623	91.820358	0.188783	0.675831	0.925350	4.063241	-2.275587	-5.839708	6.465848	0.112850	17.681638	12.652260	0.000000	5.074734	-0.230184	-0.739781	6.800488	0.118691	20.793794	-1.471487	0.000000	0.055099	0.197188	-0.181213	0.102324	0.262260	-0.192539	0.090522	0.479442	-0.192539	0.062972	0.479442	-0.158562	0.051165	0.402105	-0.147236	0.031483	0.305444	-0.135910	0.393564	2.230627	-1.007854	0.000000	0.000000	26.629063	3.067950	3.924010	-3.406596	-17.982090	46.552306	22.545593	68.025823	-4.828300	-13.793220	-8.592423	-16.891901	34.721075	31.769815	85.427853	-12.015430	-15.443915
3.983051	-0.160951	-1.661380	91.774740	0.188733	0.675808	0.925343	4.107611	-2.395287	-5.974828	6.533943	0.114039	17.631580	12.832796	0.000000	5.067567	-0.151855	-0.974491	6.734451	0.117538	20.778446	-1.171134	0.000000	0.056461	0.184847	-0.181423	0.104854	0.245846	-0.192762	0.092760	0.449436	-0.192762	0.064529	0.449436	-0.158745	0.052430	0.376939	-0.147406	0.032262	0.286327	-0.136067	0.403295	2.091022	-1.009020	0.000000	0.000000	26.679247	3.187897	3.855207	-3.423305	-17.972301	46.346338	22.663916	68.327741	-4.830833	-13.852070	-8.647563	-16.935024	34.561335	31.826845	85.535023	-11.860147	-15.511458
4.000000	-0.234429	-1.723967	91.731604	0.188665	0.675764	0.925345	4.183712	-2.509685	-6.192594	6.612644	0.115412	17.554452	13.087003	0.000000	5.106667	-0.078612	-1.115509	6.698389	0.116909	20.750555	-0.999053	0.000000	0.060332	0.173345	-0.181240	0.112043	0.230549	-0.192567	0.099120	0.421471	-0.192567	0.068954	0.421471	-0.158585	0.056024	0.353485	-0.147257	0.034474	0.268511	-0.135930	0.430946	1.960913	-1.008001	0.000000	0.000000	26.752855	3.322631	3.769983	-3.466403	-17.972914	46.039779	22.832860	68.714225	-4.836834	-13.905676	-8.725231	-16.976522	34.347265	31.890805	85.665614	-11.663955	-15.625409
4.016949	-0.289734	-1.809313	91.709613	0.188566	0.675691	0.925368	4.283603	-2.604505	-6.419670	6.688822	0.116742	17.450893	13.293112	0.000000	5.195859	-0.026756	-1.276605	6.701073	0.116956	20.753219	-0.768448	0.000000	0.066945	0.163071	-0.176137	0.124324	0.216885	-0.187145	0.109984	0.396491	-0.187145	0.076511	0.396491	-0.154120	0.062165	0.332535	-0.143111	0.038252	0.252597	-0.132103	0.478182	1.844693	-0.979619	0.000000	0.000000	26.844401	3.424353	3.584702	-3.544001	-17.978746	45.690068	23.025010	69.085168	-4.867177	-13.992027	-8.779697	-17.023308	34.155003	31.936179	85.802063	-11.367855	-15.759015
